PathFileType	4	(X/Y/Z)	21_coords_data.trc
DataRate	CameraRate	NumFrames	NumMarkers	Units	OrigDataRate	OrigDataStartFrame	OrigNumFrames
30.0	30.0	7	21	m	30.0	11	62
Frame#	Time	THUMB_TIP	THUMB_IP	THUMB_MCP	THUMB_CMC	INDEX_TIP	INDEX_DIP	INDEX_PIP	INDEX_MCP	MIDDLE_TIP	MIDDLE_DIP	MIDDLE_PIP	MIDDLE_MCP	RING_TIP	RING_DIP	RING_PIP	RING_MCP	PINKY_TIP	PINKY_DIP	PINKY_PIP	PINKY_MCP	WRIST
X1	Y1	Z1	X2	Y2	Z2	X3	Y3	Z3	X4	Y4	Z4	X5	Y5	Z5	X6	Y6	Z6	X7	Y7	Z7	X8	Y8	Z8	X9	Y9	Z9	X10	Y10	Z10	X11	Y11	Z11	X12	Y12	Z12	X13	Y13	Z13	X14	Y14	Z14	X15	Y15	Z15	X16	Y16	Z16	X17	Y17	Z17	X18	Y18	Z18	X19	Y19	Z19	X20	Y20	Z20	X21	Y21	Z21
10	0.3333333333333333	-0.010620200157165527	-0.0018622900247573851	0.89681201171875	-0.022568599700927734	0.011907299995422364	0.9200579833984375	-0.037162399291992186	0.02330649948120117	0.9467839965820313	-0.04972000122070312	0.0443844985961914	0.9722039794921875	-0.03280199813842773	0.046067699432373044	0.9457000122070313	-0.016813800811767577	0.04628260040283203	0.9348060302734374	-0.013893799781799316	0.04344879913330078	0.9109310302734375	-0.05730339813232422	0.04336320114135742	0.9101290283203125	-0.030482099533081054	0.05867219924926758	0.94668798828125	-0.020639699935913088	0.06195339965820312	0.939344970703125	-0.013525400161743164	0.06421369934082032	0.9122830200195312	-0.05915739822387695	0.06720670318603515	0.9109439697265626	-0.03665179824829102	0.07200279998779296	0.95114599609375	-0.022698799133300782	0.07677839660644531	0.9403159790039063	-0.01601650047302246	0.08302130126953125	0.9150850219726563	-0.057940299987792966	0.08725189971923829	0.91889501953125	-0.03030109977722168	0.08771880340576171	0.9461929931640625	-0.01643619918823242	0.09231420135498047	0.9357839965820313	-0.01984000015258789	0.099943603515625	0.9206820068359375	-0.05179859924316406	0.10197200012207032	0.9296519775390625	-0.08005180358886718	0.06303889846801758	0.9953280029296875
11	0.36666666666666664	-0.010534299850463866	-0.001999609947204589	0.8968250122070313	-0.0224689998626709	0.011821999549865722	0.9200900268554687	-0.037129798889160154	0.02326490020751953	0.9467579956054688	-0.049783199310302735	0.04443159866333008	0.9722559814453124	-0.032513500213623044	0.04590679931640625	0.945593017578125	-0.01645829963684082	0.04636989974975586	0.9348309936523438	-0.013756199836730957	0.04340420150756836	0.9108800048828125	-0.057092300415039064	0.04328580093383789	0.910114013671875	-0.030274799346923828	0.058692798614501954	0.9465540161132813	-0.020648399353027345	0.061996101379394535	0.9393880004882813	-0.013417900085449219	0.06418350219726562	0.9122659912109375	-0.059007900238037106	0.06709760284423828	0.9106580200195312	-0.03662250137329102	0.07187930297851562	0.950510009765625	-0.02266469955444336	0.07672879791259765	0.9402420043945312	-0.015872699737548828	0.08293499755859375	0.9149609985351562	-0.057820201873779294	0.08722879791259766	0.918718994140625	-0.03013409996032715	0.0879136962890625	0.9460440063476563	-0.016497900009155273	0.09219349670410157	0.9357990112304687	-0.019668800354003906	0.09991349792480468	0.920718994140625	-0.05172159957885742	0.10194100189208985	0.9295880126953125	-0.07995110321044922	0.06305770111083984	0.995375
12	0.4	-0.010316800117492676	-0.0018862500190734862	0.8968369750976563	-0.02220630073547363	0.011893799781799316	0.9201010131835937	-0.03697069931030274	0.02320479965209961	0.9465859985351562	-0.04958229827880859	0.04439189910888672	0.9723489990234375	-0.03238320159912109	0.045868301391601564	0.9455330200195312	-0.01654770088195801	0.04632059860229492	0.934989013671875	-0.013570199966430664	0.04345940017700195	0.910916015625	-0.056869899749755856	0.04326029968261719	0.9100750122070312	-0.031096399307250975	0.058479900360107424	0.94702001953125	-0.02051289939880371	0.061954299926757814	0.9394080200195313	-0.013225899696350098	0.06421820068359375	0.9123140258789062	-0.0589208984375	0.06712889862060546	0.9107050170898437	-0.03642559814453125	0.07203720092773437	0.9509149780273437	-0.022598400115966796	0.07675319671630859	0.9404630126953125	-0.015737600326538086	0.08299340057373047	0.91502001953125	-0.057677898406982425	0.08722419738769531	0.918760986328125	-0.03004229927062988	0.08789430236816406	0.9458709716796875	-0.0163341007232666	0.09219509887695312	0.93593701171875	-0.019628299713134765	0.09993569946289063	0.9206649780273437	-0.051481399536132816	0.10195600128173828	0.929656005859375	-0.07997209930419921	0.06295890045166015	0.9949099731445312
13	0.43333333333333335	-0.010422800064086914	-0.002094789981842041	0.89675	-0.022308399200439453	0.01174820041656494	0.9201209716796875	-0.03695380020141602	0.02312820053100586	0.9465869750976562	-0.0496077995300293	0.044429100036621094	0.9722919921875	-0.03237160110473633	0.04583300018310547	0.945447021484375	-0.016436800003051758	0.04637870025634765	0.9349349975585938	-0.013490300178527832	0.0434906997680664	0.9108469848632812	-0.0567677001953125	0.04335969924926758	0.909905029296875	-0.030532800674438476	0.0584989013671875	0.9471820068359375	-0.02040570068359375	0.0619385986328125	0.9391740112304687	-0.013143600463867188	0.06423770141601562	0.9123099975585938	-0.05870989990234375	0.06714849853515625	0.9105800170898437	-0.03627909851074219	0.0719259033203125	0.95081298828125	-0.022377899169921875	0.07672899627685546	0.9402459716796875	-0.01563029956817627	0.08298049926757813	0.9150180053710938	-0.057540699005126955	0.08726439666748047	0.918781005859375	-0.02973889923095703	0.08796630096435547	0.9463690185546875	-0.016122400283813478	0.09224510192871094	0.9359359741210938	-0.01949729919433594	0.09992430114746094	0.9207009887695312	-0.05136550140380859	0.10202100372314453	0.9296680297851563	-0.07975820159912109	0.06301150131225586	0.99506298828125
14	0.4666666666666667	-0.010564499855041504	-0.0025642800331115725	0.896885986328125	-0.02242959976196289	0.011435600280761718	0.920197998046875	-0.03706209945678711	0.022975900650024413	0.9466489868164063	-0.049629299163818356	0.044361301422119144	0.9721799926757813	-0.03242350006103516	0.04575979995727539	0.9455460205078124	-0.016299999237060547	0.04635869979858399	0.9351740112304687	-0.013430500030517578	0.04342440032958984	0.9108889770507812	-0.056689701080322265	0.043271598815917967	0.9099910278320312	-0.03058489990234375	0.05841450119018555	0.946583984375	-0.020417400360107422	0.061858001708984374	0.939405029296875	-0.013019800186157227	0.06416929626464844	0.9123499755859374	-0.05878950119018555	0.06710800170898437	0.910655029296875	-0.036032299041748046	0.071970703125	0.9510789794921874	-0.022473400115966796	0.07670590209960937	0.94027197265625	-0.01549020004272461	0.0828844985961914	0.9151010131835937	-0.057478199005126955	0.08720970153808594	0.9186729736328125	-0.030040800094604494	0.0877593002319336	0.9459450073242187	-0.01610650062561035	0.09210859680175781	0.935969970703125	-0.019295299530029297	0.09983450317382812	0.9207529907226563	-0.051352100372314455	0.10190599822998046	0.9295770263671875	-0.080006103515625	0.06301300048828125	0.9950260009765625
15	0.5	-0.010424500465393066	-0.002665580034255981	0.8969609985351562	-0.02228569984436035	0.011340700149536132	0.920260009765625	-0.03694649887084961	0.02290410041809082	0.946677978515625	-0.0496167984008789	0.044341400146484376	0.9722360229492187	-0.03231600189208984	0.04576210021972656	0.9455490112304688	-0.01620899963378906	0.0462775993347168	0.9350369873046875	-0.013310099601745605	0.043400901794433594	0.91093798828125	-0.0566338996887207	0.04320159912109375	0.9100369873046875	-0.030320100784301758	0.05851459884643555	0.9464199829101563	-0.020431900024414064	0.0618468017578125	0.939427978515625	-0.012960499763488769	0.06410220336914063	0.9124180297851563	-0.058543598175048825	0.06704620361328124	0.9106329956054687	-0.03644160079956055	0.07174320220947265	0.9506680297851563	-0.022366399765014647	0.07663939666748047	0.9402880249023438	-0.015431500434875489	0.08283000183105468	0.9151320190429687	-0.05740090179443359	0.0871364974975586	0.9186790161132813	-0.02990530014038086	0.08762059783935547	0.946166015625	-0.016018699645996094	0.09211730194091797	0.9358690185546875	-0.01918589973449707	0.09975309753417969	0.9207860107421875	-0.05134709930419922	0.101947998046875	0.9296859741210938	-0.07992150115966797	0.06282109832763672	0.9950020141601562
16	0.5333333333333333	-0.010585700035095215	-0.0030175199508666994	0.89697900390625	-0.02230820083618164	0.011111200332641602	0.9202630004882812	-0.036901100158691406	0.0228518009185791	0.94677197265625	-0.0496348991394043	0.044364700317382814	0.9722780151367187	-0.032609901428222655	0.04558029937744141	0.9451090087890625	-0.016102500915527344	0.04623849868774414	0.9350130004882813	-0.013279299736022949	0.04331290054321289	0.91089697265625	-0.05662099838256836	0.04311629867553711	0.9100260009765625	-0.030047500610351562	0.058484401702880856	0.9462310180664063	-0.02043000030517578	0.06180220031738281	0.9394329833984375	-0.012919500350952148	0.06400839996337891	0.9124030151367187	-0.058614498138427736	0.06694319915771485	0.9105819702148438	-0.03586270141601562	0.07201899719238282	0.9508579711914062	-0.02226059913635254	0.07656089782714844	0.9401259765625	-0.01536870002746582	0.08274150085449218	0.9150709838867187	-0.057273799896240235	0.08705419921875	0.9186079711914062	-0.02944599914550781	0.08779900360107422	0.9462420043945312	-0.016014999389648437	0.09201470184326171	0.9359199829101562	-0.019125600814819337	0.0996761016845703	0.9207630004882813	-0.05123619842529297	0.1018249969482422	0.929510986328125	-0.07971260070800781	0.0630441017150879	0.9949739990234375
